<mxfile host="app.diagrams.net" modified="2024-03-27T05:03:36.933Z" agent="Mozilla/5.0 (Macintosh; Intel Mac OS X 10_15_7) AppleWebKit/537.36 (KHTML, like Gecko) Chrome/123.0.0.0 Safari/537.36" etag="EDH25TVKTRnYv51Dqzrn" version="24.1.0" type="github">
  <diagram id="C5RBs43oDa-KdzZeNtuy" name="Page-1">
    <mxGraphModel dx="2713" dy="1964" grid="1" gridSize="10" guides="1" tooltips="1" connect="1" arrows="1" fold="1" page="1" pageScale="1" pageWidth="827" pageHeight="1169" math="0" shadow="0">
      <root>
        <mxCell id="WIyWlLk6GJQsqaUBKTNV-0" />
        <mxCell id="WIyWlLk6GJQsqaUBKTNV-1" parent="WIyWlLk6GJQsqaUBKTNV-0" />
        <mxCell id="bLoDom8n8q_n5jIfxJ7S-4" value="mysql&lt;div&gt;&lt;div&gt;&lt;span style=&quot;text-align: center;&quot;&gt;配置mysql&lt;/span&gt;&lt;br&gt;&lt;/div&gt;&lt;div&gt;&lt;span style=&quot;text-align: center;&quot;&gt;&amp;nbsp; &amp;nbsp;&amp;nbsp;&lt;/span&gt;&lt;span style=&quot;background-color: initial;&quot;&gt;1. 创建多个（6个）库&lt;/span&gt;&lt;/div&gt;&lt;div&gt;&amp;nbsp; &amp;nbsp; 2. 创建lowcode用户密码&lt;/div&gt;&lt;div&gt;&amp;nbsp; &amp;nbsp; 3. 给lowcde用户赋予数据库权限&lt;/div&gt;&lt;div&gt;minio&lt;/div&gt;&lt;div&gt;mongodb&lt;/div&gt;&lt;div&gt;redis&lt;/div&gt;&lt;div&gt;&lt;br&gt;&lt;/div&gt;&lt;/div&gt;" style="shape=note2;boundedLbl=1;whiteSpace=wrap;html=1;size=25;verticalAlign=top;align=left;fillColor=#fff2cc;strokeColor=#d6b656;" vertex="1" parent="WIyWlLk6GJQsqaUBKTNV-1">
          <mxGeometry x="-90" y="-110" width="160" height="180" as="geometry" />
        </mxCell>
        <mxCell id="bLoDom8n8q_n5jIfxJ7S-9" value="fielbrowser" style="shape=note2;boundedLbl=1;whiteSpace=wrap;html=1;size=25;verticalAlign=top;align=left;fillColor=#fff2cc;strokeColor=#d6b656;" vertex="1" parent="WIyWlLk6GJQsqaUBKTNV-1">
          <mxGeometry x="-180" y="360" width="120" height="60" as="geometry" />
        </mxCell>
        <mxCell id="bLoDom8n8q_n5jIfxJ7S-11" value="" style="endArrow=none;dashed=1;html=1;dashPattern=1 3;strokeWidth=2;rounded=0;entryX=1;entryY=0.5;entryDx=0;entryDy=0;exitX=0;exitY=0;exitDx=0;exitDy=0;exitPerimeter=0;" edge="1" parent="WIyWlLk6GJQsqaUBKTNV-1" source="bLoDom8n8q_n5jIfxJ7S-9" target="bLoDom8n8q_n5jIfxJ7S-47">
          <mxGeometry width="50" height="50" relative="1" as="geometry">
            <mxPoint x="230" y="550" as="sourcePoint" />
            <mxPoint x="-200" y="320" as="targetPoint" />
          </mxGeometry>
        </mxCell>
        <mxCell id="bLoDom8n8q_n5jIfxJ7S-51" value="" style="edgeStyle=none;rounded=0;orthogonalLoop=1;jettySize=auto;html=1;" edge="1" parent="WIyWlLk6GJQsqaUBKTNV-1" source="bLoDom8n8q_n5jIfxJ7S-15" target="bLoDom8n8q_n5jIfxJ7S-27">
          <mxGeometry relative="1" as="geometry" />
        </mxCell>
        <mxCell id="bLoDom8n8q_n5jIfxJ7S-15" value="k8s中部署基础设施" style="shape=process;whiteSpace=wrap;html=1;backgroundOutline=1;" vertex="1" parent="WIyWlLk6GJQsqaUBKTNV-1">
          <mxGeometry x="-160" y="160" width="120" height="60" as="geometry" />
        </mxCell>
        <mxCell id="bLoDom8n8q_n5jIfxJ7S-48" value="" style="edgeStyle=none;rounded=0;orthogonalLoop=1;jettySize=auto;html=1;" edge="1" parent="WIyWlLk6GJQsqaUBKTNV-1" source="bLoDom8n8q_n5jIfxJ7S-16" target="bLoDom8n8q_n5jIfxJ7S-28">
          <mxGeometry relative="1" as="geometry" />
        </mxCell>
        <mxCell id="bLoDom8n8q_n5jIfxJ7S-16" value="项目新增配置文件并写入配置中心的地址以及API KEY" style="rounded=0;whiteSpace=wrap;html=1;" vertex="1" parent="WIyWlLk6GJQsqaUBKTNV-1">
          <mxGeometry x="-533" y="160" width="120" height="60" as="geometry" />
        </mxCell>
        <mxCell id="bLoDom8n8q_n5jIfxJ7S-24" value="" style="edgeStyle=none;rounded=0;orthogonalLoop=1;jettySize=auto;html=1;" edge="1" parent="WIyWlLk6GJQsqaUBKTNV-1" source="bLoDom8n8q_n5jIfxJ7S-18" target="bLoDom8n8q_n5jIfxJ7S-16">
          <mxGeometry relative="1" as="geometry" />
        </mxCell>
        <mxCell id="bLoDom8n8q_n5jIfxJ7S-18" value="中台创建配置中心服务以及路由，配置路由的KEY验证方式" style="rounded=0;whiteSpace=wrap;html=1;" vertex="1" parent="WIyWlLk6GJQsqaUBKTNV-1">
          <mxGeometry x="-710" y="160" width="120" height="60" as="geometry" />
        </mxCell>
        <mxCell id="bLoDom8n8q_n5jIfxJ7S-19" value="" style="endArrow=none;dashed=1;html=1;dashPattern=1 3;strokeWidth=2;rounded=0;entryX=0.5;entryY=0;entryDx=0;entryDy=0;exitX=0.5;exitY=1;exitDx=0;exitDy=0;exitPerimeter=0;" edge="1" parent="WIyWlLk6GJQsqaUBKTNV-1" source="bLoDom8n8q_n5jIfxJ7S-4" target="bLoDom8n8q_n5jIfxJ7S-15">
          <mxGeometry width="50" height="50" relative="1" as="geometry">
            <mxPoint x="-253" y="650" as="sourcePoint" />
            <mxPoint x="-203" y="600" as="targetPoint" />
          </mxGeometry>
        </mxCell>
        <mxCell id="bLoDom8n8q_n5jIfxJ7S-52" value="" style="edgeStyle=none;rounded=0;orthogonalLoop=1;jettySize=auto;html=1;" edge="1" parent="WIyWlLk6GJQsqaUBKTNV-1" source="bLoDom8n8q_n5jIfxJ7S-27" target="bLoDom8n8q_n5jIfxJ7S-29">
          <mxGeometry relative="1" as="geometry" />
        </mxCell>
        <mxCell id="bLoDom8n8q_n5jIfxJ7S-27" value="配置中心修改配置" style="rounded=0;whiteSpace=wrap;html=1;" vertex="1" parent="WIyWlLk6GJQsqaUBKTNV-1">
          <mxGeometry x="30" y="160" width="120" height="60" as="geometry" />
        </mxCell>
        <mxCell id="bLoDom8n8q_n5jIfxJ7S-49" value="" style="edgeStyle=none;rounded=0;orthogonalLoop=1;jettySize=auto;html=1;" edge="1" parent="WIyWlLk6GJQsqaUBKTNV-1" source="bLoDom8n8q_n5jIfxJ7S-28" target="bLoDom8n8q_n5jIfxJ7S-15">
          <mxGeometry relative="1" as="geometry" />
        </mxCell>
        <mxCell id="bLoDom8n8q_n5jIfxJ7S-50" value="" style="edgeStyle=none;rounded=0;orthogonalLoop=1;jettySize=auto;html=1;" edge="1" parent="WIyWlLk6GJQsqaUBKTNV-1" source="bLoDom8n8q_n5jIfxJ7S-28" target="bLoDom8n8q_n5jIfxJ7S-47">
          <mxGeometry relative="1" as="geometry" />
        </mxCell>
        <mxCell id="bLoDom8n8q_n5jIfxJ7S-28" value="k8s中创建所有的持久卷" style="rounded=0;whiteSpace=wrap;html=1;" vertex="1" parent="WIyWlLk6GJQsqaUBKTNV-1">
          <mxGeometry x="-350" y="160" width="120" height="60" as="geometry" />
        </mxCell>
        <mxCell id="bLoDom8n8q_n5jIfxJ7S-53" value="" style="edgeStyle=none;rounded=0;orthogonalLoop=1;jettySize=auto;html=1;" edge="1" parent="WIyWlLk6GJQsqaUBKTNV-1" source="bLoDom8n8q_n5jIfxJ7S-29" target="bLoDom8n8q_n5jIfxJ7S-34">
          <mxGeometry relative="1" as="geometry" />
        </mxCell>
        <mxCell id="bLoDom8n8q_n5jIfxJ7S-29" value="pull-package持久卷放置必须的文件" style="rounded=0;whiteSpace=wrap;html=1;" vertex="1" parent="WIyWlLk6GJQsqaUBKTNV-1">
          <mxGeometry x="220" y="160" width="120" height="60" as="geometry" />
        </mxCell>
        <mxCell id="bLoDom8n8q_n5jIfxJ7S-30" value="所有的脚本&lt;div&gt;maven&lt;/div&gt;" style="shape=note2;boundedLbl=1;whiteSpace=wrap;html=1;size=25;verticalAlign=top;align=left;fillColor=#fff2cc;strokeColor=#d6b656;" vertex="1" parent="WIyWlLk6GJQsqaUBKTNV-1">
          <mxGeometry x="400" y="-10" width="90" height="80" as="geometry" />
        </mxCell>
        <mxCell id="bLoDom8n8q_n5jIfxJ7S-31" value="" style="endArrow=none;dashed=1;html=1;dashPattern=1 3;strokeWidth=2;rounded=0;entryX=0.75;entryY=0;entryDx=0;entryDy=0;exitX=0;exitY=0.5;exitDx=0;exitDy=0;exitPerimeter=0;" edge="1" parent="WIyWlLk6GJQsqaUBKTNV-1" source="bLoDom8n8q_n5jIfxJ7S-30" target="bLoDom8n8q_n5jIfxJ7S-29">
          <mxGeometry width="50" height="50" relative="1" as="geometry">
            <mxPoint x="-175" y="583" as="sourcePoint" />
            <mxPoint x="-63" y="550" as="targetPoint" />
          </mxGeometry>
        </mxCell>
        <mxCell id="bLoDom8n8q_n5jIfxJ7S-54" value="" style="edgeStyle=none;rounded=0;orthogonalLoop=1;jettySize=auto;html=1;" edge="1" parent="WIyWlLk6GJQsqaUBKTNV-1" source="bLoDom8n8q_n5jIfxJ7S-34" target="bLoDom8n8q_n5jIfxJ7S-35">
          <mxGeometry relative="1" as="geometry" />
        </mxCell>
        <mxCell id="bLoDom8n8q_n5jIfxJ7S-34" value="k8s中部署pull-package服务" style="rounded=0;whiteSpace=wrap;html=1;" vertex="1" parent="WIyWlLk6GJQsqaUBKTNV-1">
          <mxGeometry x="413.5" y="160" width="120" height="60" as="geometry" />
        </mxCell>
        <mxCell id="bLoDom8n8q_n5jIfxJ7S-55" value="" style="edgeStyle=none;rounded=0;orthogonalLoop=1;jettySize=auto;html=1;" edge="1" parent="WIyWlLk6GJQsqaUBKTNV-1" source="bLoDom8n8q_n5jIfxJ7S-35" target="bLoDom8n8q_n5jIfxJ7S-39">
          <mxGeometry relative="1" as="geometry" />
        </mxCell>
        <mxCell id="bLoDom8n8q_n5jIfxJ7S-35" value="pull-package服务中拉取所有的业务服务包" style="rounded=0;whiteSpace=wrap;html=1;" vertex="1" parent="WIyWlLk6GJQsqaUBKTNV-1">
          <mxGeometry x="600" y="160" width="120" height="60" as="geometry" />
        </mxCell>
        <mxCell id="bLoDom8n8q_n5jIfxJ7S-37" value="messaging&lt;div&gt;tracking&lt;/div&gt;&lt;div&gt;searching&lt;/div&gt;&lt;div&gt;dictionary&lt;/div&gt;&lt;div&gt;lowcode-cook&lt;/div&gt;&lt;div&gt;lowcode-deploy-gateway&lt;/div&gt;&lt;div&gt;lowcode-guardian&lt;/div&gt;&lt;div&gt;&lt;br&gt;&lt;/div&gt;&lt;div&gt;所有前端的包&lt;/div&gt;" style="shape=note2;boundedLbl=1;whiteSpace=wrap;html=1;size=25;verticalAlign=top;align=left;fillColor=#fff2cc;strokeColor=#d6b656;" vertex="1" parent="WIyWlLk6GJQsqaUBKTNV-1">
          <mxGeometry x="860" y="-150" width="150" height="220" as="geometry" />
        </mxCell>
        <mxCell id="bLoDom8n8q_n5jIfxJ7S-38" value="" style="endArrow=none;dashed=1;html=1;dashPattern=1 3;strokeWidth=2;rounded=0;entryX=0.5;entryY=0;entryDx=0;entryDy=0;exitX=0;exitY=0.5;exitDx=0;exitDy=0;exitPerimeter=0;" edge="1" parent="WIyWlLk6GJQsqaUBKTNV-1" source="bLoDom8n8q_n5jIfxJ7S-37" target="bLoDom8n8q_n5jIfxJ7S-35">
          <mxGeometry width="50" height="50" relative="1" as="geometry">
            <mxPoint x="900" y="-50" as="sourcePoint" />
            <mxPoint x="790" y="-75" as="targetPoint" />
          </mxGeometry>
        </mxCell>
        <mxCell id="bLoDom8n8q_n5jIfxJ7S-56" value="" style="edgeStyle=none;rounded=0;orthogonalLoop=1;jettySize=auto;html=1;" edge="1" parent="WIyWlLk6GJQsqaUBKTNV-1" source="bLoDom8n8q_n5jIfxJ7S-39" target="bLoDom8n8q_n5jIfxJ7S-43">
          <mxGeometry relative="1" as="geometry" />
        </mxCell>
        <mxCell id="bLoDom8n8q_n5jIfxJ7S-39" value="k8s中部署所有的业务服务" style="rounded=0;whiteSpace=wrap;html=1;" vertex="1" parent="WIyWlLk6GJQsqaUBKTNV-1">
          <mxGeometry x="790" y="160" width="120" height="60" as="geometry" />
        </mxCell>
        <mxCell id="bLoDom8n8q_n5jIfxJ7S-40" value="k8s中部署日志相关的所有服务" style="rounded=0;whiteSpace=wrap;html=1;" vertex="1" parent="WIyWlLk6GJQsqaUBKTNV-1">
          <mxGeometry x="-563" y="1250" width="120" height="60" as="geometry" />
        </mxCell>
        <mxCell id="bLoDom8n8q_n5jIfxJ7S-41" value="fluentd&lt;div&gt;es&lt;/div&gt;&lt;div&gt;kibana&lt;/div&gt;" style="shape=note2;boundedLbl=1;whiteSpace=wrap;html=1;size=25;verticalAlign=top;align=left;fillColor=#fff2cc;strokeColor=#d6b656;" vertex="1" parent="WIyWlLk6GJQsqaUBKTNV-1">
          <mxGeometry x="-343" y="1290" width="70" height="90" as="geometry" />
        </mxCell>
        <mxCell id="bLoDom8n8q_n5jIfxJ7S-42" value="" style="endArrow=none;dashed=1;html=1;dashPattern=1 3;strokeWidth=2;rounded=0;entryX=1;entryY=0.25;entryDx=0;entryDy=0;exitX=0;exitY=0;exitDx=0;exitDy=0;exitPerimeter=0;" edge="1" parent="WIyWlLk6GJQsqaUBKTNV-1" source="bLoDom8n8q_n5jIfxJ7S-41" target="bLoDom8n8q_n5jIfxJ7S-40">
          <mxGeometry width="50" height="50" relative="1" as="geometry">
            <mxPoint x="-333" y="1095" as="sourcePoint" />
            <mxPoint x="-433" y="1015" as="targetPoint" />
          </mxGeometry>
        </mxCell>
        <mxCell id="bLoDom8n8q_n5jIfxJ7S-43" value="k8s中配置ingress" style="rounded=0;whiteSpace=wrap;html=1;" vertex="1" parent="WIyWlLk6GJQsqaUBKTNV-1">
          <mxGeometry x="990" y="160" width="120" height="60" as="geometry" />
        </mxCell>
        <mxCell id="bLoDom8n8q_n5jIfxJ7S-44" value="中台中配置应用的权限" style="rounded=0;whiteSpace=wrap;html=1;" vertex="1" parent="WIyWlLk6GJQsqaUBKTNV-1">
          <mxGeometry x="-293" y="1520" width="120" height="60" as="geometry" />
        </mxCell>
        <mxCell id="bLoDom8n8q_n5jIfxJ7S-47" value="工具部署" style="rounded=0;whiteSpace=wrap;html=1;" vertex="1" parent="WIyWlLk6GJQsqaUBKTNV-1">
          <mxGeometry x="-350" y="290" width="120" height="60" as="geometry" />
        </mxCell>
      </root>
    </mxGraphModel>
  </diagram>
</mxfile>
